<?xml version="1.0" encoding="utf-8"?>
<!-- Generator: Adobe Illustrator 22.0.0, SVG Export Plug-In . SVG Version: 6.00 Build 0)  -->
<svg version="1.1" id="Layer_1" xmlns="http://www.w3.org/2000/svg" xmlns:xlink="http://www.w3.org/1999/xlink" x="0px" y="0px"
	 viewBox="0 0 200 116" style="enable-background:new 0 0 200 116;" xml:space="preserve">
<style type="text/css">
	.st0{fill:#E73C33;}
	.st1{fill:#071C2C;}
	.st2{fill:#FFFFFF;}
	.st3{fill:#FFFFFA;}
	.st4{fill:#466922;}
	.st5{fill:#527A28;}
	.st6{fill:#64942F;}
	.st7{fill:#5B872B;}
	.st8{fill:#80B407;}
	.st9{fill:#4298C7;}
	.st10{opacity:0.2;fill:#204152;}
	.st11{opacity:0.1;fill:#FFFFFF;}
	.st12{fill:#EEF7FC;}
	.st13{fill:#B4D4E9;}
	.st14{opacity:0.2;fill:#335582;}
	.st15{fill:#365784;}
	.st16{opacity:0.1;fill:#F0F5F9;}
	.st17{fill:#223752;}
</style>
<path id="XMLID_937_" class="st0" d="M134.1,76.7c0,0-11.2-31.3-19.9-31.3h-10.6h-10H82.9C74.2,45.4,63,76.7,63,76.7
	c-3,8.6,3.4,13.6,6.3,13.6h24.3h10h24.3C130.7,90.4,137.1,85.4,134.1,76.7z"/>
<path id="XMLID_460_" class="st1" d="M70.7,58.4c5.9,0.1,9.4-1.3,9.6-6l0-1.2c4.1-5.7,15-4.4,17.3-4.8c2.3,0.4,13.1-0.7,17.2,5.1
	l0,1.2c0.1,4.8,3.6,6.2,9.5,6.2l0,0c5.3,0.1,9.5,0.9,9.6-3l0-2.5c0-3.1-0.9-5.9-2.4-8l0,0c0,0-3.5-5.8-12.1-8.4
	c-2.3-0.7-4.6-1-6.9-1l-14.7-0.1L83,35.7c-2.3,0-4.7,0.2-6.9,0.9c-8.6,2.4-12.2,8.1-12.2,8.1l0,0c-1.6,2.1-2.6,4.9-2.6,7.9l0,2.5
	C61.2,59.1,65.5,58.3,70.7,58.4L70.7,58.4z"/>
<path id="XMLID_939_" class="st3" d="M90.4,54.9H85c-0.6,0-1.1,0.5-1.1,1.1v1.3c0,0.6,0.5,1.1,1.1,1.1h5.4c0.6,0,1.1-0.5,1.1-1.1
	v-1.3C91.5,55.4,91,54.9,90.4,54.9z"/>
<path id="XMLID_940_" class="st3" d="M100.2,54.9H95c-0.7,0-1.2,0.5-1.2,1.2v1.1c0,0.7,0.5,1.2,1.2,1.2h5.2c0.7,0,1.2-0.5,1.2-1.2
	v-1.1C101.4,55.5,100.9,54.9,100.2,54.9z"/>
<path id="XMLID_459_" class="st3" d="M110.2,54.9h-5.4c-0.6,0-1.1,0.5-1.1,1.1v1.3c0,0.6,0.5,1.1,1.1,1.1h5.4c0.6,0,1.1-0.5,1.1-1.1
	v-1.3C111.3,55.4,110.8,54.9,110.2,54.9z"/>
<path id="XMLID_942_" class="st3" d="M90.4,63.1H85c-0.6,0-1.1,0.5-1.1,1.1v1.3c0,0.6,0.5,1.1,1.1,1.1h5.4c0.6,0,1.1-0.5,1.1-1.1
	v-1.3C91.5,63.6,91,63.1,90.4,63.1z"/>
<path id="XMLID_943_" class="st3" d="M100.2,63.1H95c-0.7,0-1.2,0.5-1.2,1.2v1.1c0,0.7,0.5,1.2,1.2,1.2h5.2c0.7,0,1.2-0.5,1.2-1.2
	v-1.1C101.4,63.7,100.9,63.1,100.2,63.1z"/>
<path id="XMLID_458_" class="st3" d="M110.2,63.1h-5.4c-0.6,0-1.1,0.5-1.1,1.1v1.3c0,0.6,0.5,1.1,1.1,1.1h5.4c0.6,0,1.1-0.5,1.1-1.1
	v-1.3C111.3,63.6,110.8,63.1,110.2,63.1z"/>
<path id="XMLID_945_" class="st3" d="M90.4,71.4H85c-0.6,0-1.1,0.5-1.1,1.1v1.3c0,0.6,0.5,1.1,1.1,1.1h5.4c0.6,0,1.1-0.5,1.1-1.1
	v-1.3C91.5,71.9,91,71.4,90.4,71.4z"/>
<path id="XMLID_946_" class="st3" d="M100.2,71.4H95c-0.7,0-1.2,0.5-1.2,1.2v1.1c0,0.7,0.5,1.2,1.2,1.2h5.2c0.7,0,1.2-0.5,1.2-1.2
	v-1.1C101.4,71.9,100.9,71.4,100.2,71.4z"/>
<path id="XMLID_457_" class="st3" d="M110.2,71.4h-5.4c-0.6,0-1.1,0.5-1.1,1.1v1.3c0,0.6,0.5,1.1,1.1,1.1h5.4c0.6,0,1.1-0.5,1.1-1.1
	v-1.3C111.3,71.9,110.8,71.4,110.2,71.4z"/>
</svg>
