<?xml version="1.0" encoding="utf-8"?>
<!-- Generator: Adobe Illustrator 22.0.0, SVG Export Plug-In . SVG Version: 6.00 Build 0)  -->
<svg version="1.1" id="Layer_1" xmlns="http://www.w3.org/2000/svg" xmlns:xlink="http://www.w3.org/1999/xlink" x="0px" y="0px"
	 viewBox="0 0 158 148" style="enable-background:new 0 0 158 148;" xml:space="preserve">
<style type="text/css">
	.st0{fill:#E73C33;}
	.st1{fill:#071C2C;}
	.st2{fill:#FFFFFF;}
	.st3{fill:#FFFFFA;}
	.st4{fill:#466922;}
	.st5{fill:#527A28;}
	.st6{fill:#64942F;}
	.st7{fill:#5B872B;}
	.st8{fill:#80B407;}
	.st9{fill:#4298C7;}
	.st10{opacity:0.2;fill:#204152;}
	.st11{opacity:0.1;fill:#FFFFFF;}
	.st12{fill:#EEF7FC;}
	.st13{fill:#B4D4E9;}
	.st14{opacity:0.2;fill:#335582;}
	.st15{fill:#365784;}
	.st16{opacity:0.1;fill:#F0F5F9;}
	.st17{fill:#223752;}
</style>
<path id="XMLID_658_" class="st0" d="M141.1,100.1h-23.3h-0.3H94.2c-1.1,0-2.1,0.6-2.6,1.6l18.6,15h7.3h0.3h7.3l18.6-15
	C143.3,100.8,142.3,100.1,141.1,100.1z"/>
<polygon id="XMLID_657_" class="st0" points="143.7,101.4 117.7,75.8 117.7,75.7 117.6,75.7 117.5,75.7 117.5,75.8 91.5,101.4 "/>
<rect id="XMLID_656_" x="97.1" y="89.3" class="st1" width="41.2" height="28.8"/>
<rect id="XMLID_655_" x="104.2" y="97.3" class="st2" width="27" height="1.7"/>
<rect id="XMLID_654_" x="104.2" y="103.6" class="st2" width="27" height="1.7"/>
<path id="XMLID_653_" class="st0" d="M96.7,133.5l21.3-15.4l-26.4-16.4c-0.2,0.4-0.4,0.9-0.4,1.4v26.2c0,2.3,1.9,4.2,4.2,4.2H96.7z"
	/>
<path id="XMLID_652_" class="st0" d="M139.9,133.5c2.3,0,4.2-1.9,4.2-4.2v-26.2c0-0.5-0.1-1-0.4-1.4l-26.4,16.4l21.3,15.4H139.9z"/>
<polygon id="XMLID_651_" class="st0" points="138.6,133.5 117.6,118.2 96.7,133.5 "/>
</svg>
