<?xml version="1.0" encoding="utf-8"?>
<!-- Generator: Adobe Illustrator 22.0.0, SVG Export Plug-In . SVG Version: 6.00 Build 0)  -->
<svg version="1.1" id="Layer_1" xmlns="http://www.w3.org/2000/svg" xmlns:xlink="http://www.w3.org/1999/xlink" x="0px" y="0px"
	 viewBox="0 0 62 62" style="enable-background:new 0 0 62 62;" xml:space="preserve">
<style type="text/css">
	.st0{fill:#FFFFFF;}
	.st1{opacity:0.21;}
	.st2{fill:#1D1C1A;}
	.st3{fill:#E63D33;}
	.st4{fill:#AE202B;}
	.st5{fill:#FFF7F7;}
	.st6{opacity:0.1;}
	.st7{fill:#7393CB;}
	.st8{fill:#1C1C1A;}
	.st9{fill:#E53E33;}
	.st10{fill:#AD202B;}
	.st11{opacity:0.1;fill:#AD202B;}
	.st12{fill:#C22329;}
	.st13{opacity:0.1;fill:#C22329;}
	.st14{fill:#FDF6F6;}
	.st15{clip-path:url(#SVGID_4_);}
	.st16{fill:#DDE8F4;}
	.st17{display:none;fill:none;stroke:#1C1C1A;stroke-width:2;stroke-miterlimit:10;}
	.st18{fill:#FDF6F6;stroke:#1C1C1A;stroke-width:0.5;stroke-miterlimit:10;}
	.st19{fill:none;stroke:#1C1C1A;stroke-miterlimit:10;}
	.st20{fill:#F7E3E2;}
	.st21{opacity:0.21;fill:#1C1C1A;}
	.st22{fill:#C32228;}
	.st23{fill:#FFF7F7;stroke:#1C1C1A;stroke-width:0.15;stroke-miterlimit:10;}
	.st24{fill:#C0252A;}
	.st25{fill:#0B1C2B;}
	.st26{opacity:0.1;fill:#1C1C1A;}
	.st27{fill:#696969;}
	.st28{fill:#FFF7F7;stroke:#1C1C1A;stroke-width:0.5;stroke-miterlimit:10;}
	.st29{fill:none;}
	.st30{fill:#FFF8F9;stroke:#1D1C1A;stroke-width:0.25;stroke-miterlimit:10;}
	.st31{fill:#E63D32;}
	.st32{clip-path:url(#SVGID_12_);}
	.st33{fill:#E63D32;stroke:#1D1C1A;stroke-width:0.5;stroke-miterlimit:10;}
	.st34{fill:#E63D34;}
	.st35{fill:#2E2E2E;}
	.st36{fill:#AA202B;}
	.st37{clip-path:url(#SVGID_16_);}
	.st38{fill:#FFF8F9;}
	.st39{fill:#231F20;}
	.st40{fill:#242A3C;}
	.st41{clip-path:url(#SVGID_20_);}
	.st42{clip-path:url(#SVGID_22_);}
	.st43{clip-path:url(#SVGID_24_);fill:#1D1C1A;}
	.st44{clip-path:url(#SVGID_26_);}
	.st45{clip-path:url(#SVGID_28_);fill:#1D1C1A;}
	.st46{fill:#FFFFFF;stroke:#1D1C1A;stroke-width:0.5;stroke-miterlimit:10;}
	.st47{fill:#D7E0E5;}
	.st48{opacity:0.5;fill:#D7E0E5;}
	.st49{clip-path:url(#SVGID_32_);}
	.st50{fill:#F6F7F7;stroke:#1C1C1A;stroke-width:0.5;stroke-miterlimit:10;}
	.st51{fill:#FFFFFF;stroke:#231F20;stroke-width:0.5;stroke-miterlimit:10;}
	.st52{fill:#D8E0E6;stroke:#1D1C1A;stroke-width:0.5;stroke-miterlimit:10;}
	.st53{fill:none;stroke:#CDCA87;stroke-width:0.5;stroke-miterlimit:10;}
	.st54{clip-path:url(#SVGID_34_);}
	.st55{clip-path:url(#SVGID_36_);fill:#1D1C1A;}
	.st56{clip-path:url(#SVGID_38_);}
	.st57{clip-path:url(#SVGID_40_);fill:#1D1C1A;}
	.st58{opacity:0.1;fill:#1D1C1A;}
	.st59{clip-path:url(#SVGID_44_);}
	.st60{clip-path:url(#SVGID_46_);fill:#1D1C1A;}
	.st61{clip-path:url(#SVGID_48_);}
	.st62{clip-path:url(#SVGID_50_);fill:#1D1C1A;}
	.st63{clip-path:url(#SVGID_54_);}
	.st64{clip-path:url(#SVGID_56_);}
	.st65{clip-path:url(#SVGID_58_);fill:#1D1C1A;}
	.st66{clip-path:url(#SVGID_60_);}
	.st67{clip-path:url(#SVGID_62_);fill:#1D1C1A;}
	.st68{clip-path:url(#SVGID_66_);}
	.st69{clip-path:url(#SVGID_68_);fill:#1D1C1A;}
	.st70{clip-path:url(#SVGID_70_);}
	.st71{clip-path:url(#SVGID_72_);fill:#1D1C1A;}
	.st72{clip-path:url(#SVGID_76_);}
	.st73{clip-path:url(#SVGID_78_);}
	.st74{clip-path:url(#SVGID_80_);fill:#1D1C1A;}
	.st75{clip-path:url(#SVGID_82_);}
	.st76{clip-path:url(#SVGID_84_);fill:#1D1C1A;}
	.st77{clip-path:url(#SVGID_88_);}
	.st78{fill:#FDF6F6;stroke:#1C1C1A;stroke-width:0.25;stroke-miterlimit:10;}
	.st79{clip-path:url(#SVGID_92_);}
	.st80{clip-path:url(#SVGID_94_);}
</style>
<g>
	<g>
		<path class="st1" d="M17.1,28.7 M19.8,27.7 M20.7,27.4c-0.2,0.1-0.4,0.2-0.7,0.2C20.2,27.6,20.5,27.5,20.7,27.4z"/>
		<path class="st2" d="M42,41.3v1.5l9.7-0.5c0.1-0.5,0.1-0.9,0.1-1.4c0-0.3,0-0.6-0.1-1c-0.3-2.7-2.4-4.6-4.6-4.6
			c-1.4,0-2.7,0.7-3.6,1.8C42.7,38.2,42,39.7,42,41.3z"/>
		<path class="st2" d="M9,40.7c0,0.4,0,0.8,0.1,1.2l9.7,0.6v-1.3c0-3.2-2.2-5.9-4.9-5.9c-1.3,0-2.5,0.6-3.3,1.6
			C9.6,37.8,9,39.2,9,40.7z"/>
		<path class="st31" d="M4.3,36.7c0,0-0.3-1.7,0.2-3.1c0.1-0.2,0.1-0.3,0.2-0.4c0.1,0.2,0.3,0.5,0.8,0.7c0.7,0.3,2.1,0.1,2.1,0.1
			s0.5-0.3,0.7-0.4c0.2-0.1,1.2-0.6-1.1-0.6c-1.5,0-1.6-0.8-1.9-1.2c0.1-0.2,0.1-0.4,0.2-0.5c0.2-0.7,0.8-1.2,1.4-1.2
			c0.4,0,0.8,0,1.2,0c0.7,0,1.7-0.1,2.7-0.4l1.3,0.4c2.2-1.3,6.4-2.8,8.1-3.4c0,0,0,0,0,0c2.2-0.5,4.9-1.3,9.5-1.1
			c0.9,0.1,2.1,0.3,3.4,0.7c2.7,1.2,6.8,3.9,7.3,4.3c0.5,0.4,1.9,1,2.8,0.7c0.4-0.1,0.8-0.2,1-0.2c0.9,0.1,3.4,0.3,5.6,0.8
			c2.7,0.7,5.3,1.6,6.7,2.5s2,1.7,1.5,3.1l0,0c-0.5,0.6-1.5,1.6-1.7,1.6l0.8,1.6c0,0,0.3,0.5,0.9-0.1l0.1,0.2c0,0-0.4,1-1.5,1.6
			c-1.1,0.5-2.3,0.8-5.1,1.1c0,0-0.1,0-0.1,0c0.5-1.2,0.5-2.2,0.2-3.4c-0.4-1.6-2-3.4-4.4-3.5c-2.6-0.1-5.1,1.7-5.1,4.9l0.1,2
			c0,0,0,0,0,0l-23.3-0.3l0,0v-1.8c-0.1-2.8-2.2-4.7-4.7-4.7c-2.5-0.1-4.5,1.7-5,3.9c-0.1,0.7-0.1,1.3,0,2.1l-0.1,0
			c0,0-2-0.2-4.1-1.2c0,0-0.6-1.2-1-2.3C3.6,37.9,3.9,37.2,4.3,36.7z"/>
		<path class="st4" d="M18.3,39.1c0.3,0,0.5,0,0.5,0l23.3,0.3c0,0,0,0,0,0l0.3,0c-0.2,0.6-0.4,1.3-0.4,2l0,2l-23.3-0.3
			c0,0,0,0-0.1,0v-1.8C18.8,40.5,18.5,39.8,18.3,39.1z"/>
		<path class="st4" d="M51.7,40.7c0-0.2-0.2-0.9-0.4-1.3c2.6-0.2,4.1-0.6,5.2-1.2c1.1-0.5,0.4,0,0.4-0.1c0,0,0.1,0,0.1,0
			c0,0.2,1.1-1,1-0.8l0,0c-0.1,0.1-0.1,0.1-0.2,0.2c-0.5,0.6-1.3,1.3-1.5,1.3l0,0c0,0,0,0,0,0l0.9,1.7c0,0,0.3,0.4,0.9-0.2l0,0.3
			c0,0-0.2,0.4-0.5,0.8c-0.2,0.3-0.5,0.5-0.9,0.7c-1.1,0.5-2.3,0.8-5.1,1.1c0,0,0,0,0,0l-0.2,0C51.7,42.5,51.9,41.9,51.7,40.7z"/>
		<path class="st4" d="M4.9,41.2c0,0-0.6-1.2-1-2.3c-0.3-1.1-0.1-1.8,0.3-2.3c0,0-0.1-0.4-0.1-1c0,0,0,0,0,0
			c0.4,1.1,1.2,1.8,2.2,2.2c1.5,0.5,2.7,0.6,2.7,0.6l0.1,0c0.1,0,0.7,0.1,0.8,0.1c-0.3,0.5-0.7,1.1-0.8,2c-0.1,0.6-0.1,1.4,0,1.9
			l-0.1,0C9.1,42.5,7.1,42.3,4.9,41.2z"/>
		<path class="st5" d="M40.9,32.3c0,0-18-0.3-26.8-1.8c0,0,8.1-4.3,14.1-4C34.1,26.9,36.3,28.8,40.9,32.3z"/>
		<path class="st2" d="M40.4,30.5c-0.5-0.4-4.6-3.1-7.3-4.3c4.8,1.5,10.8,4.7,10.8,4.7s0.1,0,0.3,0c-0.2,0-0.5,0.1-1,0.2
			C42.4,31.5,41,30.9,40.4,30.5z"/>
		<path class="st2" d="M10.8,29.5c0.2-0.1,0.5-0.1,0.7-0.2c1.2-0.4,6.5-2.2,8.8-2.8c-1.8,0.6-5.9,2.1-8.1,3.4L10.8,29.5z"/>
		<path class="st5" d="M7.8,32.6c2.2,0.4,0.7,0.8,0.5,0.9c-0.2,0.1-0.7,0.4-0.7,0.4s-1.3,0.1-2.1,0c-0.5-0.1-0.8-0.2-0.9-0.4
			c0.2-0.5,0.6-1.4,0.8-1.9C5.6,32,6.2,32.4,7.8,32.6z"/>
		<g>
			<ellipse class="st2" cx="46.8" cy="41.5" rx="4" ry="3.9"/>
			<ellipse class="st5" cx="46.8" cy="41.5" rx="3.1" ry="3.1"/>
			<ellipse class="st2" cx="46.8" cy="41.5" rx="1" ry="1"/>
			<path class="st6" d="M50.8,41.5c0,0.4-0.1,0.7-0.1,1c-0.5-1.7-2-2.9-3.8-2.9s-3.4,1.2-3.8,2.9c-0.1-0.3-0.1-0.7-0.1-1
				c0-2.2,1.8-3.9,4-3.9C49,37.6,50.8,39.3,50.8,41.5z"/>
		</g>
		<g>
			<ellipse class="st2" cx="13.9" cy="41.5" rx="4" ry="3.9"/>
			<ellipse class="st5" cx="13.9" cy="41.5" rx="3.1" ry="3.1"/>
			<ellipse class="st2" cx="13.9" cy="41.5" rx="1" ry="1"/>
			<path class="st6" d="M17.8,41.5c0,0.4-0.1,0.7-0.1,1c-0.5-1.7-2-2.9-3.8-2.9s-3.4,1.2-3.8,2.9c-0.1-0.3-0.1-0.7-0.1-1
				c0-2.2,1.8-3.9,4-3.9C16.1,37.6,17.8,39.3,17.8,41.5z"/>
		</g>
		<path class="st5" d="M53.1,33.6c0,0-1.3-0.4-0.9,0.5s2.1,2.6,3.1,2.6c1.2,0,1.8-0.1,1.6-0.6C56.6,35.2,54.7,34,53.1,33.6z"/>
		<path class="st4" d="M58,37.4l0,3.3c0,0,0,0,0,0.1l-0.6,0.4c-0.1,0.1-0.3,0.1-0.4-0.1l-1.2-1.8c-0.2-0.2-0.1-0.6,0.2-0.7L58,37.4z
			"/>
		<g>
			<path class="st7" d="M39.2,30.1l-0.7,0c-0.2,0-0.5,0.1-0.5,0.4c0,0.2,0,0.9,0,0.9c0,0.3,0.1,0.5,0.3,0.5l1.3,0.1l0.2,0.6l0.7,0.1
				c0,0-0.1-1.4-0.9-2.3C39.6,30.2,39.4,30.1,39.2,30.1z"/>
			<path class="st6" d="M39.2,30.1l-0.7,0c-0.2,0-0.5,0.1-0.5,0.4c0,0.2,0,0.9,0,0.9c0,0.3,0.1,0.5,0.3,0.5l1.3,0.1l0.2,0.6l0.7,0
				c0,0-0.1-1.4-0.8-2.2C39.6,30.2,39.4,30.1,39.2,30.1z"/>
		</g>
	</g>
	<g>
		<path class="st1" d="M41.5,19.2h-3v-1.1c0-0.2-0.2-0.4-0.4-0.4h-0.6c-0.2,0-0.4,0.2-0.4,0.4v1.1H24.6v-1.1c0-0.2-0.2-0.4-0.4-0.4
			h-0.6c-0.2,0-0.4,0.2-0.4,0.4v1.1h-2.8c-0.9,0-1.6,0.7-1.6,1.6v6.2v16.5c0,0.9,0.7,1.6,1.6,1.6h21c0.9,0,1.6-0.7,1.6-1.6V27.1
			v-6.2C43.1,20,42.4,19.2,41.5,19.2z"/>
		<path class="st5" d="M17.8,42.4c0,0.9,0.7,1.6,1.6,1.6h21c0.9,0,1.6-0.7,1.6-1.6V25.9H17.8V42.4z"/>
		<path class="st8" d="M40.4,18.1h-21c-0.9,0-1.6,0.7-1.6,1.6v6.2h24.2v-6.2C41.9,18.8,41.2,18.1,40.4,18.1z"/>
		<g>
			<g>
				<g>
					<rect x="25.5" y="27.6" class="st31" width="3" height="3"/>
				</g>
				<g>
					<rect x="31" y="27.6" class="st31" width="3" height="3"/>
				</g>
				<g>
					<rect x="31" y="38.5" class="st31" width="3" height="3"/>
				</g>
				<g>
					<rect x="36.5" y="27.6" class="st31" width="3" height="3"/>
				</g>
				<g>
					<rect x="36.5" y="38.4" class="st31" width="3" height="3"/>
				</g>
				<g>
					<rect x="36.5" y="33.2" class="st31" width="3" height="3"/>
				</g>
				<g>
					<rect x="20" y="33.2" class="st31" width="3" height="3"/>
				</g>
				<g>
					<rect x="25.5" y="33.2" class="st31" width="3" height="3"/>
				</g>
				<g>
					<rect x="31" y="33.2" class="st31" width="3" height="3"/>
				</g>
				<g>
					<rect x="20" y="38.5" class="st31" width="3" height="3"/>
				</g>
				<g>
					<rect x="25.5" y="38.5" class="st31" width="3" height="3"/>
				</g>
			</g>
		</g>
		<path class="st31" d="M23.1,20.2h-0.6c-0.2,0-0.4-0.2-0.4-0.4V17c0-0.2,0.2-0.4,0.4-0.4h0.6c0.2,0,0.4,0.2,0.4,0.4v2.9
			C23.5,20.1,23.3,20.2,23.1,20.2z"/>
		<path class="st5" d="M24.3,22.4v-0.9c0-0.2,0.2-0.4,0.4-0.4h10.4c0.2,0,0.4,0.2,0.4,0.4v0.9c0,0.2-0.2,0.4-0.4,0.4H24.7
			C24.5,22.8,24.3,22.6,24.3,22.4z"/>
		<path class="st31" d="M37,20.2h-0.6c-0.2,0-0.4-0.2-0.4-0.4V17c0-0.2,0.2-0.4,0.4-0.4H37c0.2,0,0.4,0.2,0.4,0.4v2.9
			C37.4,20.1,37.2,20.2,37,20.2z"/>
	</g>
</g>
<g>
	<g>
		<path class="st1" d="M17.1,28.7 M19.8,27.7 M20.7,27.4c-0.2,0.1-0.4,0.2-0.7,0.2C20.2,27.6,20.5,27.5,20.7,27.4z"/>
		<path class="st2" d="M42.1,41.3v1.5l9.7-0.5c0.1-0.5,0.1-0.9,0.1-1.4c0-0.3,0-0.6-0.1-1c-0.3-2.7-2.4-4.6-4.6-4.6
			c-1.4,0-2.7,0.7-3.6,1.8C42.7,38.2,42.1,39.7,42.1,41.3z"/>
		<path class="st2" d="M9,40.7c0,0.4,0,0.8,0.1,1.2l9.7,0.6v-1.3c0-3.2-2.2-5.9-4.9-5.9c-1.3,0-2.5,0.6-3.3,1.6
			C9.6,37.8,9,39.2,9,40.7z"/>
		<path class="st31" d="M4.3,36.7c0,0-0.3-1.7,0.2-3.1c0.1-0.2,0.1-0.3,0.2-0.4c0.1,0.2,0.3,0.5,0.8,0.7c0.7,0.3,2.1,0.1,2.1,0.1
			s0.5-0.3,0.7-0.4c0.2-0.1,1.2-0.6-1.1-0.6c-1.5,0-1.6-0.8-1.9-1.2c0.1-0.2,0.1-0.4,0.2-0.5c0.2-0.7,0.8-1.2,1.4-1.2
			c0.4,0,0.8,0,1.2,0c0.7,0,1.7-0.1,2.7-0.4l1.3,0.4c2.2-1.3,6.4-2.8,8.2-3.4c0,0,0,0,0,0c2.2-0.5,4.9-1.3,9.5-1.1
			c1,0.1,2.1,0.3,3.4,0.7c2.7,1.2,6.8,3.9,7.3,4.3c0.5,0.4,1.9,1,2.8,0.7c0.4-0.1,0.8-0.2,1-0.2c0.9,0.1,3.4,0.3,5.6,0.8
			c2.7,0.7,5.3,1.6,6.7,2.5c1.4,0.9,2,1.7,1.5,3.1l0,0C57.5,38,56.6,39,56.3,39l0.8,1.6c0,0,0.3,0.5,0.9-0.1l0.1,0.2
			c0,0-0.4,1-1.5,1.6c-1.1,0.5-2.3,0.8-5.1,1.1c0,0-0.1,0-0.1,0c0.5-1.2,0.5-2.2,0.2-3.4c-0.4-1.6-2-3.4-4.4-3.5
			c-2.6-0.1-5.1,1.7-5.1,4.9l0.1,2c0,0,0,0,0,0l-23.3-0.3l0,0v-1.8c-0.1-2.8-2.2-4.7-4.7-4.8c-2.5-0.1-4.5,1.7-5,3.9
			c-0.1,0.7-0.1,1.3,0,2.1l-0.1,0c0,0-2-0.2-4.1-1.2c0,0-0.6-1.2-1-2.3C3.6,37.9,3.8,37.2,4.3,36.7z"/>
		<path class="st4" d="M18.3,39.1c0.3,0,0.5,0,0.5,0l23.3,0.3c0,0,0,0,0,0l0.3,0c-0.2,0.6-0.4,1.3-0.4,2l0,2l-23.3-0.3
			c0,0,0,0-0.1,0v-1.8C18.8,40.5,18.5,39.8,18.3,39.1z"/>
		<path class="st4" d="M51.7,40.7c0-0.2-0.2-0.9-0.4-1.3c2.6-0.2,4.1-0.6,5.2-1.2c1.1-0.5,0.4,0,0.4-0.1c0,0,0.1,0,0.1,0
			c0,0.2,1.1-1,1-0.8l0,0c-0.1,0.1-0.1,0.1-0.2,0.2c-0.5,0.6-1.3,1.3-1.5,1.3l0,0c0,0,0,0,0,0l0.9,1.7c0,0,0.3,0.4,0.9-0.2l0,0.3
			c0,0-0.2,0.4-0.5,0.8c-0.2,0.3-0.5,0.5-0.9,0.7c-1.1,0.5-2.3,0.8-5.1,1.1c0,0,0,0,0,0l-0.2,0C51.7,42.5,51.9,41.9,51.7,40.7z"/>
		<path class="st4" d="M4.9,41.2c0,0-0.6-1.2-1-2.3s-0.1-1.8,0.3-2.3c0,0-0.1-0.4-0.1-1c0,0,0,0,0,0c0.4,1.1,1.2,1.8,2.2,2.2
			c1.5,0.5,2.7,0.6,2.7,0.6l0.1,0c0.1,0,0.7,0.1,0.8,0.1c-0.3,0.5-0.7,1.1-0.8,2c-0.1,0.6-0.1,1.4,0,1.9l-0.1,0
			C9.1,42.5,7.1,42.3,4.9,41.2z"/>
		<path class="st5" d="M40.9,32.3c0,0-18-0.3-26.9-1.8c0,0,8.1-4.3,14.1-4C34.1,26.9,36.3,28.8,40.9,32.3z"/>
		<path class="st2" d="M40.5,30.5c-0.5-0.4-4.6-3.1-7.3-4.3c4.8,1.5,10.8,4.7,10.8,4.7s0.1,0,0.3,0c-0.2,0-0.5,0.1-1,0.2
			C42.4,31.5,41,30.9,40.5,30.5z"/>
		<path class="st2" d="M10.8,29.5c0.2-0.1,0.5-0.1,0.7-0.2c1.2-0.4,6.5-2.2,8.8-2.8c-1.8,0.6-5.9,2.1-8.1,3.4L10.8,29.5z"/>
		<path class="st5" d="M7.8,32.6c2.2,0.4,0.7,0.8,0.5,0.9c-0.2,0.1-0.7,0.4-0.7,0.4s-1.3,0.1-2.1,0c-0.5-0.1-0.8-0.2-0.9-0.4
			c0.2-0.5,0.6-1.4,0.8-1.9C5.6,32,6.1,32.4,7.8,32.6z"/>
		<g>
			<ellipse class="st2" cx="46.9" cy="41.5" rx="4" ry="3.9"/>
			<ellipse class="st5" cx="46.9" cy="41.5" rx="3.1" ry="3.1"/>
			<ellipse class="st2" cx="46.9" cy="41.5" rx="1" ry="1"/>
			<path class="st6" d="M50.8,41.5c0,0.4-0.1,0.7-0.1,1c-0.5-1.7-2-2.9-3.8-2.9c-1.8,0-3.4,1.2-3.8,2.9c-0.1-0.3-0.1-0.7-0.1-1
				c0-2.2,1.8-3.9,4-3.9C49,37.6,50.8,39.3,50.8,41.5z"/>
		</g>
		<g>
			<ellipse class="st2" cx="13.9" cy="41.5" rx="4" ry="3.9"/>
			<ellipse class="st5" cx="13.9" cy="41.5" rx="3.1" ry="3.1"/>
			<ellipse class="st2" cx="13.9" cy="41.5" rx="1" ry="1"/>
			<path class="st6" d="M17.8,41.5c0,0.4-0.1,0.7-0.1,1c-0.5-1.7-2-2.9-3.8-2.9s-3.4,1.2-3.8,2.9c-0.1-0.3-0.1-0.7-0.1-1
				c0-2.2,1.8-3.9,4-3.9C16.1,37.6,17.8,39.3,17.8,41.5z"/>
		</g>
		<path class="st5" d="M53.1,33.6c0,0-1.3-0.4-0.9,0.5s2.1,2.6,3.1,2.6c1.2,0,1.8-0.1,1.6-0.6C56.6,35.2,54.7,34,53.1,33.6z"/>
		<path class="st4" d="M58,37.4l0,3.3c0,0,0,0,0,0.1l-0.6,0.4c-0.1,0.1-0.3,0.1-0.4-0.1l-1.2-1.8c-0.2-0.2-0.1-0.6,0.2-0.7L58,37.4z
			"/>
		<g>
			<path class="st7" d="M39.2,30.1l-0.7,0c-0.2,0-0.5,0.1-0.5,0.4c0,0.2,0,0.9,0,0.9c0,0.3,0.1,0.5,0.3,0.5l1.3,0.1l0.2,0.6l0.7,0.1
				c0,0-0.1-1.4-0.9-2.3C39.6,30.2,39.4,30.1,39.2,30.1z"/>
			<path class="st6" d="M39.2,30.1l-0.7,0c-0.2,0-0.5,0.1-0.5,0.4c0,0.2,0,0.9,0,0.9c0,0.3,0.1,0.5,0.3,0.5l1.3,0.1l0.2,0.6l0.7,0
				c0,0-0.1-1.4-0.8-2.2C39.6,30.2,39.4,30.1,39.2,30.1z"/>
		</g>
	</g>
	<g>
		<path class="st1" d="M41.5,19.2h-3v-1.1c0-0.2-0.2-0.4-0.4-0.4h-0.6c-0.2,0-0.4,0.2-0.4,0.4v1.1H24.6v-1.1c0-0.2-0.2-0.4-0.4-0.4
			h-0.6c-0.2,0-0.4,0.2-0.4,0.4v1.1h-2.8c-0.9,0-1.6,0.7-1.6,1.6v6.2v16.5c0,0.9,0.7,1.6,1.6,1.6h21c0.9,0,1.6-0.7,1.6-1.6V27.1
			v-6.2C43.1,20,42.4,19.2,41.5,19.2z"/>
		<path class="st5" d="M17.8,42.4c0,0.9,0.7,1.6,1.6,1.6h21c0.9,0,1.6-0.7,1.6-1.6V25.9H17.8V42.4z"/>
		<path class="st8" d="M40.4,18.1h-21c-0.9,0-1.6,0.7-1.6,1.6v6.2H42v-6.2C42,18.8,41.2,18.1,40.4,18.1z"/>
		<g>
			<rect x="25.5" y="27.6" class="st8" width="3" height="3"/>
			<rect x="31" y="27.6" class="st8" width="3" height="3"/>
			<rect x="31" y="38.5" class="st8" width="3" height="3"/>
			<rect x="36.5" y="27.6" class="st8" width="3" height="3"/>
			<rect x="36.5" y="38.4" class="st8" width="3" height="3"/>
			<rect x="36.5" y="33.2" class="st8" width="3" height="3"/>
			<rect x="20" y="33.2" class="st8" width="3" height="3"/>
			<rect x="25.5" y="33.2" class="st8" width="3" height="3"/>
			<rect x="31" y="33.2" class="st8" width="3" height="3"/>
			<rect x="20" y="38.6" class="st8" width="3" height="3"/>
			<rect x="25.5" y="38.6" class="st8" width="3" height="3"/>
		</g>
		<path class="st31" d="M23.1,20.2h-0.6c-0.2,0-0.4-0.2-0.4-0.4V17c0-0.2,0.2-0.4,0.4-0.4h0.6c0.2,0,0.4,0.2,0.4,0.4v2.9
			C23.5,20,23.3,20.2,23.1,20.2z"/>
		<path class="st5" d="M24.3,22.4v-0.9c0-0.2,0.2-0.4,0.4-0.4h10.4c0.2,0,0.4,0.2,0.4,0.4v0.9c0,0.2-0.2,0.4-0.4,0.4H24.7
			C24.5,22.8,24.3,22.6,24.3,22.4z"/>
		<path class="st31" d="M37,20.2h-0.6c-0.2,0-0.4-0.2-0.4-0.4V17c0-0.2,0.2-0.4,0.4-0.4H37c0.2,0,0.4,0.2,0.4,0.4v2.9
			C37.4,20,37.2,20.2,37,20.2z"/>
	</g>
</g>
</svg>
