<?xml version="1.0" encoding="utf-8"?>
<!-- Generator: Adobe Illustrator 22.0.0, SVG Export Plug-In . SVG Version: 6.00 Build 0)  -->
<svg version="1.1" id="Layer_1" xmlns="http://www.w3.org/2000/svg" xmlns:xlink="http://www.w3.org/1999/xlink" x="0px" y="0px"
	 viewBox="0 0 62 62" style="enable-background:new 0 0 62 62;" xml:space="preserve">
<style type="text/css">
	.st0{fill:#FFFFFF;}
	.st1{opacity:0.21;}
	.st2{fill:#1D1C1A;}
	.st3{fill:#E63D33;}
	.st4{fill:#AE202B;}
	.st5{fill:#FFF7F7;}
	.st6{opacity:0.1;}
	.st7{fill:#7393CB;}
	.st8{fill:#1C1C1A;}
	.st9{fill:#E53E33;}
	.st10{fill:#AD202B;}
	.st11{opacity:0.1;fill:#AD202B;}
	.st12{fill:#C22329;}
	.st13{opacity:0.1;fill:#C22329;}
	.st14{fill:#FDF6F6;}
	.st15{clip-path:url(#SVGID_4_);}
	.st16{fill:#DDE8F4;}
	.st17{display:none;fill:none;stroke:#1C1C1A;stroke-width:2;stroke-miterlimit:10;}
	.st18{fill:#FDF6F6;stroke:#1C1C1A;stroke-width:0.5;stroke-miterlimit:10;}
	.st19{fill:none;stroke:#1C1C1A;stroke-miterlimit:10;}
	.st20{fill:#F7E3E2;}
	.st21{opacity:0.21;fill:#1C1C1A;}
	.st22{fill:#C32228;}
	.st23{fill:#FFF7F7;stroke:#1C1C1A;stroke-width:0.15;stroke-miterlimit:10;}
	.st24{fill:#C0252A;}
	.st25{fill:#0B1C2B;}
	.st26{opacity:0.1;fill:#1C1C1A;}
	.st27{fill:#696969;}
	.st28{fill:#FFF7F7;stroke:#1C1C1A;stroke-width:0.5;stroke-miterlimit:10;}
	.st29{fill:none;}
	.st30{fill:#FFF8F9;stroke:#1D1C1A;stroke-width:0.25;stroke-miterlimit:10;}
	.st31{fill:#E63D32;}
	.st32{clip-path:url(#SVGID_12_);}
	.st33{fill:#E63D32;stroke:#1D1C1A;stroke-width:0.5;stroke-miterlimit:10;}
	.st34{fill:#E63D34;}
	.st35{fill:#2E2E2E;}
	.st36{fill:#AA202B;}
	.st37{clip-path:url(#SVGID_16_);}
	.st38{fill:#FFF8F9;}
	.st39{fill:#231F20;}
	.st40{fill:#242A3C;}
	.st41{clip-path:url(#SVGID_20_);}
	.st42{clip-path:url(#SVGID_22_);}
	.st43{clip-path:url(#SVGID_24_);fill:#1D1C1A;}
	.st44{clip-path:url(#SVGID_26_);}
	.st45{clip-path:url(#SVGID_28_);fill:#1D1C1A;}
	.st46{fill:#FFFFFF;stroke:#1D1C1A;stroke-width:0.5;stroke-miterlimit:10;}
	.st47{fill:#D7E0E5;}
	.st48{opacity:0.5;fill:#D7E0E5;}
	.st49{clip-path:url(#SVGID_32_);}
	.st50{fill:#F6F7F7;stroke:#1C1C1A;stroke-width:0.5;stroke-miterlimit:10;}
	.st51{fill:#FFFFFF;stroke:#231F20;stroke-width:0.5;stroke-miterlimit:10;}
	.st52{fill:#D8E0E6;stroke:#1D1C1A;stroke-width:0.5;stroke-miterlimit:10;}
	.st53{fill:none;stroke:#CDCA87;stroke-width:0.5;stroke-miterlimit:10;}
	.st54{clip-path:url(#SVGID_34_);}
	.st55{clip-path:url(#SVGID_36_);fill:#1D1C1A;}
	.st56{clip-path:url(#SVGID_38_);}
	.st57{clip-path:url(#SVGID_40_);fill:#1D1C1A;}
	.st58{opacity:0.1;fill:#1D1C1A;}
	.st59{clip-path:url(#SVGID_44_);}
	.st60{clip-path:url(#SVGID_46_);fill:#1D1C1A;}
	.st61{clip-path:url(#SVGID_48_);}
	.st62{clip-path:url(#SVGID_50_);fill:#1D1C1A;}
	.st63{clip-path:url(#SVGID_54_);}
	.st64{clip-path:url(#SVGID_56_);}
	.st65{clip-path:url(#SVGID_58_);fill:#1D1C1A;}
	.st66{clip-path:url(#SVGID_60_);}
	.st67{clip-path:url(#SVGID_62_);fill:#1D1C1A;}
	.st68{clip-path:url(#SVGID_66_);}
	.st69{clip-path:url(#SVGID_68_);fill:#1D1C1A;}
	.st70{clip-path:url(#SVGID_70_);}
	.st71{clip-path:url(#SVGID_72_);fill:#1D1C1A;}
	.st72{clip-path:url(#SVGID_76_);}
	.st73{clip-path:url(#SVGID_78_);}
	.st74{clip-path:url(#SVGID_80_);fill:#1D1C1A;}
	.st75{clip-path:url(#SVGID_82_);}
	.st76{clip-path:url(#SVGID_84_);fill:#1D1C1A;}
	.st77{clip-path:url(#SVGID_88_);}
	.st78{fill:#FDF6F6;stroke:#1C1C1A;stroke-width:0.25;stroke-miterlimit:10;}
	.st79{clip-path:url(#SVGID_92_);}
	.st80{clip-path:url(#SVGID_94_);}
</style>
<g>
	<line class="st1" x1="36.9" y1="41.1" x2="28.9" y2="40.6"/>
	<path class="st1" d="M39.3,39.4l6.8-6.6c0.4-0.4,1-0.7,1.7-0.7c0.5,0,1,0.1,1.4,0.6c0.5,0.4,0.6,1,0.6,1.5c0,0.8-0.3,1.5-0.9,2
		c-1.6,1.6-6.7,6.7-8.4,8.4C38.9,46.2,37,46,37,46l-11.7-0.7L25,45.4l-2.3,1.8l-5.8-6l5.1-4.5c0,0,1.3-1.2,4.3-0.7
		c3,0.4,10.6,0.9,10.6,0.9"/>
	<g>
		<g>
			<circle class="st19" cx="33.9" cy="22.7" r="11"/>
			<circle class="st8" cx="33.9" cy="22.7" r="11"/>
			<circle class="st5" cx="33.9" cy="22.7" r="7.1"/>
			<g>
				<path class="st8" d="M31,17l2.1,3.6c0.3,0.6,1.1,0.6,1.5,0l2.1-3.6c0,0-0.8-0.8-2.8-0.8C31.9,16.2,31,17,31,17z"/>
				<path class="st8" d="M38.2,18.1l-2.6,3.3c-0.4,0.5-0.1,1.3,0.5,1.3l4.2,0.6c0,0,0.4-1.1-0.3-2.9C39.3,18.6,38.2,18.1,38.2,18.1z
					"/>
				<path class="st8" d="M39.8,25.3l-4-1.4c-0.6-0.2-1.2,0.3-1.1,0.9l0.8,4.1c0,0,1.2,0.1,2.7-1.2C39.6,26.5,39.8,25.3,39.8,25.3z"
					/>
				<path class="st8" d="M33.1,29l0.3-4.2c0-0.6-0.6-1.1-1.2-0.8l-3.8,1.9c0,0,0.2,1.1,1.9,2.2C31.9,29.2,33.1,29,33.1,29z"/>
				<path class="st8" d="M27.5,23.8l4.1-0.9c0.6-0.1,0.9-0.9,0.4-1.4l-2.9-3.1c0,0-1,0.6-1.6,2.4C27,22.7,27.5,23.8,27.5,23.8z"/>
			</g>
		</g>
		<path class="st20" d="M38.8,38.4l6.8-6.6c0.4-0.4,1-0.7,1.7-0.7c0.5,0,1,0.1,1.4,0.6c0.5,0.4,0.6,1,0.6,1.5c0,0.8-0.3,1.5-0.9,2
			c-1.6,1.6-6.7,6.7-8.4,8.4c-1.6,1.5-3.5,1.4-3.5,1.4l-11.7-0.7l-0.2,0.2l-2.3,1.8l-5.8-6l5.1-4.5c0,0,1.3-1.2,4.3-0.7
			c3,0.4,10.6,0.9,10.6,0.9s2,0.2,2.1,2.3c0.1,2.1-2.2,1.8-2.2,1.8l-8-0.5"/>
		<path class="st8" d="M19.7,50L19.7,50c0.4,0.3,0.9,0.3,1.3,0l2-1.8c0.5-0.4,0.5-1.1,0-1.5l-7.2-6.9c-0.4-0.4-1-0.4-1.4,0l-2,1.8
			c-0.4,0.4-0.4,1.1,0,1.5L19.7,50z"/>
		<path class="st21" d="M28,39.7c0,0,7.7,0.5,7.7,0.5c1.6,0.2,2.5-0.2,2.8-1.2c0-0.2,0.1-0.3,0.1-0.5c0,0.3,0,0.7,0,1
			c-0.1,0.6-0.5,1.2-1.1,1.5c-0.6,0.2-1.1,0.1-1.7-0.1c-0.4-0.1-0.8-0.1-1.3-0.2c-1-0.2-2-0.3-2.9-0.5c-0.9-0.1-1.7-0.3-2.6-0.4
			C28.7,39.8,28.4,39.7,28,39.7z"/>
		<g>
			<path class="st8" d="M12.5,42.8L12.5,42.8c-0.2-0.2-0.2-0.4,0-0.5l2.5-2.7c0.1-0.1,0.3-0.1,0.4,0l0,0c0.1,0.1,0.1,0.3,0,0.4
				l-2.5,2.7C12.8,42.9,12.6,42.9,12.5,42.8z"/>
			<path class="st8" d="M13.6,43.8L13.6,43.8c-0.2-0.2-0.2-0.4,0-0.5l2.5-2.7c0.1-0.1,0.3-0.1,0.4,0l0,0c0.1,0.1,0.1,0.3,0,0.4
				l-2.5,2.7C13.9,43.9,13.7,43.9,13.6,43.8z"/>
			<path class="st8" d="M14.7,44.9L14.7,44.9c-0.2-0.2-0.2-0.4,0-0.5l2.5-2.7c0.1-0.1,0.3-0.1,0.4,0l0,0c0.1,0.1,0.1,0.3,0,0.4
				l-2.5,2.7C15.1,45,14.9,45,14.7,44.9z"/>
			<path class="st8" d="M15.8,45.9L15.8,45.9c-0.2-0.2-0.2-0.4,0-0.5l2.5-2.7c0.1-0.1,0.3-0.1,0.4,0l0,0c0.1,0.1,0.1,0.3,0,0.4
				l-2.5,2.7C16.2,46,16,46,15.8,45.9z"/>
			<path class="st8" d="M17,47L17,47c-0.2-0.2-0.2-0.4,0-0.5l2.5-2.7c0.1-0.1,0.3-0.1,0.4,0l0,0c0.1,0.1,0.1,0.3,0,0.4L17.4,47
				C17.3,47.1,17.1,47.1,17,47z"/>
			<path class="st8" d="M18.1,48L18.1,48c-0.2-0.2-0.2-0.4,0-0.5l2.5-2.7c0.1-0.1,0.3-0.1,0.4,0l0,0c0.1,0.1,0.1,0.3,0,0.4L18.5,48
				C18.4,48.2,18.2,48.2,18.1,48z"/>
			<path class="st8" d="M19.2,49.1L19.2,49.1c-0.2-0.2-0.2-0.4,0-0.5l2.5-2.7c0.1-0.1,0.3-0.1,0.4,0l0,0c0.1,0.1,0.1,0.3,0,0.4
				l-2.5,2.7C19.5,49.2,19.3,49.2,19.2,49.1z"/>
			<path class="st8" d="M20.3,50.2L20.3,50.2c-0.2-0.2-0.2-0.4,0-0.5l2.5-2.7c0.1-0.1,0.3-0.1,0.4,0l0,0c0.1,0.1,0.1,0.3,0,0.4
				l-2.5,2.7C20.6,50.3,20.4,50.3,20.3,50.2z"/>
		</g>
	</g>
</g>
</svg>
