<?xml version="1.0" encoding="utf-8"?>
<!-- Generator: Adobe Illustrator 22.0.0, SVG Export Plug-In . SVG Version: 6.00 Build 0)  -->
<svg version="1.1" id="Layer_1" xmlns="http://www.w3.org/2000/svg" xmlns:xlink="http://www.w3.org/1999/xlink" x="0px" y="0px"
	 viewBox="0 0 396 209" style="enable-background:new 0 0 396 209;" xml:space="preserve">
<style type="text/css">
	.st0{fill:#E73C33;}
	.st1{fill:#071C2C;}
	.st2{fill:#FFFFFF;}
	.st3{fill:#FFFFFA;}
	.st4{fill:#466922;}
	.st5{fill:#527A28;}
	.st6{fill:#64942F;}
	.st7{fill:#5B872B;}
	.st8{fill:#80B407;}
	.st9{fill:#4298C7;}
	.st10{opacity:0.2;fill:#204152;}
	.st11{opacity:0.1;fill:#FFFFFF;}
	.st12{fill:#EEF7FC;}
	.st13{fill:#B4D4E9;}
	.st14{opacity:0.2;fill:#335582;}
	.st15{fill:#365784;}
	.st16{opacity:0.1;fill:#F0F5F9;}
	.st17{fill:#223752;}
</style>
<g>
	<path class="st4" d="M216.2,201.9c0,0-7.4-24.6,2.8-50.2c0,0,8.9,22.2,3.4,50.2H216.2z"/>
	<path class="st4" d="M207.8,209c0,0-7.4-24.6,2.8-50.2c0,0,8.9,22.2,3.4,50.2H207.8z"/>
	<path class="st4" d="M377.2,201.9c0,0-7.4-21.2,2.8-43.2c0,0,8.9,19.1,3.4,43.2H377.2z"/>
	<path class="st5" d="M386,201.9c0,0-6.5-17.7,2.4-36c0,0,7.9,15.9,3,36H386z"/>
	<path class="st5" d="M222.6,201.9c0,0-5.7-19.3,2.2-39.3c0,0,6.9,17.4,2.6,39.3H222.6z"/>
	<g>
		<path class="st6" d="M210.2,180.4c3.4,0,5.4,2.2,6,4.8c0.5-0.3,1.1-0.4,1.8-0.4c2.2,0,3.4,1.6,3.6,3.4h6.1c0-1.2,0.8-2.4,2.3-2.4
			c1.5,0,2.3,1.2,2.3,2.4h0.5c-0.2-2.4,1.2-5,4.3-5c3.1,0,4.6,2.6,4.3,5h10.8c0.2-2.7,2.1-5.3,5.6-5.3c1.1,0,2.1,0.3,2.8,0.7
			c0.3-0.7,0.7-1.3,1.3-1.9c0.1-0.1,0.2-0.2,0.3-0.3c0.5-0.6,1.2-1,1.9-1.2c0.7-0.4,1.4-0.5,2.3-0.5c0.8,0,1.6,0.1,2.3,0.5
			c0.7,0.2,1.4,0.6,1.9,1.2c0.3,0.4,0.6,0.8,0.9,1.2c0.5,0.9,0.8,1.9,0.8,2.9L272,187c-0.1,0.4-0.3,0.8-0.4,1.1h8.5
			c0.4-1.6,1.6-2.9,3.7-2.9c1.1,0,1.9,0.4,2.6,0.9c0.3-1.7,1.5-3.3,3.8-3.3c3.1,0,4.4,3,3.6,5.3h4.7c-0.1-2.1,1.2-4.3,3.8-4.3
			c2.7,0,4,2.2,3.8,4.3h10c0.6-1.1,1.7-1.9,3.3-1.9c1.6,0,2.7,0.8,3.3,1.9h7.7c0-2,1.3-4,3.8-4c2.6,0,3.8,2,3.8,4h8.3
			c-0.1-0.3-0.1-0.5-0.1-0.8c0-0.5,0.1-1.1,0.3-1.5c0.2-0.5,0.4-0.9,0.8-1.3c0.8-0.7,1.8-1.2,2.8-1.2c1.1,0,2.1,0.4,2.8,1.2l0.3,0.3
			c0.5,0.5,0.9,1.1,1,1.8c0.6-0.7,1.6-1.1,2.8-1.1c2,0,3.2,1.2,3.6,2.7h14.5c0.4-1.5,1.7-2.7,3.6-2.7c0.9,0,1.6,0.2,2.2,0.6
			c0.1-0.9,0.5-1.8,1.1-2.4c0.8-0.7,1.7-1.2,2.8-1.2h0.3c1,0,2.1,0.4,2.8,1.2c0.4,0.4,0.7,0.8,0.8,1.3c0.2,0.5,0.4,1,0.3,1.5
			c0,0.5-0.1,1.1-0.3,1.6h6.9v13.8H206.2c0,0-2.1-14.3-0.8-21C205.6,180.2,209.3,180.4,210.2,180.4z"/>
		<g>
			<path class="st7" d="M374.5,190.6c-2.7,0-2.7,4.3,0,4.3C377.2,194.8,377.2,190.6,374.5,190.6z"/>
			<path class="st7" d="M379.4,191.3c-0.7,0-0.7,1.1,0,1.1C380.1,192.3,380.1,191.3,379.4,191.3z"/>
			<path class="st7" d="M346.9,195.9c0,0-0.1,0.1-0.1,0.1c-0.5,0.5,0.3,1.2,0.8,0.8c0,0,0.1-0.1,0.1-0.1
				C348.1,196.2,347.4,195.4,346.9,195.9z"/>
			<path class="st7" d="M351,197.2c-0.9,0-0.9,1.3,0,1.3C351.9,198.6,351.9,197.2,351,197.2z"/>
			<path class="st7" d="M353,191.5c-1.7,0-1.7,2.7,0,2.7C354.7,194.2,354.7,191.5,353,191.5z"/>
			<path class="st7" d="M307.4,193.9c-1.7,0-1.7,2.7,0,2.7C309.1,196.6,309.1,193.9,307.4,193.9z"/>
			<path class="st7" d="M319.8,198.5c-0.1-0.3-0.4-0.7-0.7-0.9c-0.3-0.2-0.7-0.2-1-0.2c0,0-0.1,0-0.1,0c0,0,0,0,0,0c0,0,0,0,0,0
				c-0.5,0.1-1,0.5-1.1,1c-0.1,0.5,0,1,0.4,1.4c0.2,0.3,0.7,0.5,1.1,0.5c0.4,0,0.8-0.2,1.1-0.4C319.9,199.6,319.9,199.1,319.8,198.5
				z"/>
			<path class="st7" d="M321.1,192.5c-1.7,0-1.7,2.7,0,2.7C322.8,195.1,322.8,192.5,321.1,192.5z"/>
			<path class="st7" d="M301.3,192.3c-2.2,0-2.2,3.5,0,3.5C303.6,195.8,303.6,192.3,301.3,192.3z"/>
			<path class="st7" d="M310.6,191.8c-1.3,0-1.3,2,0,2C311.8,193.7,311.8,191.8,310.6,191.8z"/>
			<path class="st7" d="M308.1,197.8c-1.7,0-1.7,2.7,0,2.7C309.8,200.4,309.8,197.8,308.1,197.8z"/>
			<path class="st7" d="M261,186.3h-0.1c-0.7,0-1.4,0.6-1.3,1.3c0,0.7,0.6,1.3,1.3,1.3h0.1c0.7,0,1.4-0.6,1.3-1.3
				C262.3,186.9,261.7,186.3,261,186.3z"/>
			<path class="st7" d="M267.8,185.3c-0.9,0-0.9,1.3,0,1.3C268.7,186.6,268.7,185.3,267.8,185.3z"/>
			<path class="st7" d="M267.5,190.6c-1.7,0-1.7,2.7,0,2.7C269.2,193.2,269.2,190.6,267.5,190.6z"/>
			<path class="st7" d="M234,192.5L234,192.5c-0.4,0-0.8,0.3-0.8,0.7c0,0.4,0.3,0.7,0.7,0.7h0.1c0.4,0,0.7-0.3,0.7-0.7
				C234.7,192.8,234.4,192.5,234,192.5z"/>
			<path class="st7" d="M223,197.6c-1.7,0-1.7,2.7,0,2.7C224.7,200.3,224.7,197.6,223,197.6z"/>
			<path class="st7" d="M211,187.9c-1.7,0-1.7,2.7,0,2.7C212.7,190.6,212.7,187.9,211,187.9z"/>
			<path class="st7" d="M213.6,190.3c-1.4,0-1.4,2.1,0,2.1C214.9,192.5,214.9,190.3,213.6,190.3z"/>
			<path class="st7" d="M244.9,198c-0.7,0-1.3,0.6-1.3,1.3v0.1c0,0.7,0.6,1.4,1.3,1.3c0.7,0,1.3-0.6,1.3-1.3v-0.1
				C246.3,198.7,245.6,198,244.9,198z"/>
		</g>
	</g>
	<polygon class="st8" points="396,209 207.7,209 206.2,201.9 396,201.9 	"/>
	<g>
		<g>
			<polygon class="st1" points="226.9,201.9 226.9,42.8 295.8,19.7 295.8,201.9 			"/>
			<polygon class="st0" points="226.9,201.9 226.9,49.1 295.8,26 295.8,201.9 			"/>
			<g>
				<polygon class="st9" points="295.8,34.7 270.6,34.7 279,31.7 295.8,31.7 				"/>
				<rect x="226.9" y="53" class="st9" width="68.9" height="3"/>
				<rect x="226.9" y="74.3" class="st9" width="68.9" height="3"/>
				<rect x="226.9" y="95.6" class="st9" width="68.9" height="3"/>
				<rect x="226.9" y="117" class="st9" width="68.9" height="3"/>
				<rect x="226.9" y="138.3" class="st9" width="68.9" height="3"/>
				<rect x="226.9" y="159.6" class="st9" width="68.9" height="3"/>
				<rect x="226.9" y="180.9" class="st9" width="68.9" height="3"/>
			</g>
			<polygon class="st10" points="226.9,49.6 236.5,46.4 236.5,201.9 226.9,201.9 			"/>
			<polygon class="st11" points="295.8,78.7 226.9,118.6 226.9,49.6 295.8,26 			"/>
			<polygon class="st11" points="295.8,121.6 226.9,161.5 226.9,148.4 295.8,108.5 			"/>
			<polygon class="st11" points="295.8,154.9 226.9,194.8 226.9,169 295.8,129.1 			"/>
			<polygon class="st12" points="263.4,201.9 259.2,201.9 259.2,38.3 263.4,36.9 			"/>
		</g>
		<g>
			<rect x="295.8" y="63.5" class="st1" width="80.9" height="138.4"/>
			<rect x="295.8" y="56" class="st13" width="80.9" height="7.5"/>
			<rect x="295.8" y="56" class="st14" width="6.2" height="145.9"/>
			<rect x="305.6" y="170.4" class="st13" width="59.4" height="31.5"/>
			<g>
				<rect x="308.9" y="174.1" class="st15" width="53" height="27.8"/>
				<polygon class="st16" points="328.1,201.9 308.9,201.9 322.2,174.1 341.5,174.1 				"/>
				<polygon class="st16" points="348.4,201.9 342,201.9 355.4,174.1 361.8,174.1 				"/>
				<rect x="308.9" y="179.1" class="st17" width="53" height="1.3"/>
				
					<rect x="311.4" y="187.3" transform="matrix(-1.836970e-16 1 -1 -1.836970e-16 513.3373 -137.2876)" class="st17" width="27.8" height="1.5"/>
				
					<rect x="331.5" y="187.3" transform="matrix(-1.836970e-16 1 -1 -1.836970e-16 533.4064 -157.3566)" class="st17" width="27.8" height="1.5"/>
			</g>
			<g>
				<g>
					<g>
						<g>
							<rect x="308.9" y="75.1" class="st15" width="21.9" height="4"/>
						</g>
						<g>
							<rect x="308.9" y="85.5" class="st15" width="21.9" height="4"/>
						</g>
						<g>
							<rect x="308.9" y="95.9" class="st15" width="21.9" height="4"/>
						</g>
						<g>
							<rect x="308.9" y="106.3" class="st15" width="21.9" height="4"/>
						</g>
						<g>
							<rect x="308.9" y="116.7" class="st15" width="21.9" height="4"/>
						</g>
						<g>
							<rect x="308.9" y="127.1" class="st15" width="21.9" height="4"/>
						</g>
						<g>
							<rect x="308.9" y="137.5" class="st15" width="21.9" height="4"/>
						</g>
						<g>
							<rect x="308.9" y="147.9" class="st15" width="21.9" height="4"/>
						</g>
						<g>
							<rect x="308.9" y="158.3" class="st15" width="21.9" height="4"/>
						</g>
					</g>
					<g>
						<g>
							<rect x="339.9" y="75.1" class="st15" width="21.9" height="4"/>
						</g>
						<g>
							<rect x="339.9" y="85.5" class="st15" width="21.9" height="4"/>
						</g>
						<g>
							<rect x="339.9" y="95.9" class="st15" width="21.9" height="4"/>
						</g>
						<g>
							<rect x="339.9" y="106.3" class="st15" width="21.9" height="4"/>
						</g>
						<g>
							<rect x="339.9" y="116.7" class="st15" width="21.9" height="4"/>
						</g>
						<g>
							<rect x="339.9" y="127.1" class="st15" width="21.9" height="4"/>
						</g>
						<g>
							<rect x="339.9" y="137.5" class="st15" width="21.9" height="4"/>
						</g>
						<g>
							<rect x="339.9" y="147.9" class="st15" width="21.9" height="4"/>
						</g>
						<g>
							<rect x="339.9" y="158.3" class="st15" width="21.9" height="4"/>
						</g>
					</g>
				</g>
			</g>
		</g>
	</g>
</g>
</svg>
